<svg width="26" height="29" viewBox="0 0 26 29" fill="none" xmlns="http://www.w3.org/2000/svg"><path d="M10.875 0c-1.63125 0-2.9 1.35937-2.9 3.08125 0 1.72187 1.26875 3.08125 2.9 3.08125 1.6313 0 2.9-1.35938 2.9-3.08125C13.775 1.35937 12.5063 0 10.875 0Zm0 1.17812c.9969 0 1.7219.84282 1.7219 1.90313 0 .99687-.7885 1.90313-1.7219 1.90313-.99687 0-1.72187-.84282-1.72187-1.90313 0-.99688.77937-1.90313 1.72187-1.90313ZM0 24.7406c0 1.1782.40781 2.175 1.35938 2.9907.99687.8518 2.175.7793 2.175.7793H22.5656c.7794 0 1.8125-.3806 2.6281-1.45.8429-.9968.7885-2.3562.7885-2.3562V7.48563c0-.435-.1088-.59813-.7431-.59813-.6344 0-.6888.27188-.6888.58906V24.6953c-.0181.2991-.0725 1.0875-.7431 1.7219-.7341.6253-1.45.5437-1.45.5437s-18.12501 0-19.03126-.0271c-.34438-.0635-.90625-.1904-1.45-.9063-.5075-.725-.40782-1.6313-.40782-1.6313V7.1775c0-.46219-.23562-.63437-.725-.63437-.48937 0-.74312.17218-.74312.58V24.7406ZM16.3125 8.42813c-1.0875.23562-2.175.38062-4.2594 2.35627-2.08435 1.9937-3.62497 1.9031-5.1656 1.8125-1.54062-.0906-3.17187-1.5406-3.44375-1.9031-.33531-.3535-.90625-.1179-1.0875.1178-.15406.2356-.15406.6434.10875.9968 1.26875 1.1782 2.44688 2.0844 4.7125 2.2657 2.26562.2175 4.4406-.8066 5.8906-2.2657 1.45-1.45 2.175-1.7218 3.2625-1.90309 2.6281-.41687 4.1688.61629 5.075 1.26879.9969 1.0875 1.2688.7793 1.5406.4712.5438-.7159-.2265-1.2687-1.0874-1.90311-1.8125-1.17813-3.5344-1.63125-5.5282-1.26875l-.0181-.04531ZM7.25 15.5875c-1.17812 0-2.08438.9969-2.08438 2.2656 0 1.2688.90626 2.2657 2.08438 2.2657 1.17813 0 2.08438-.9969 2.08438-2.2657 0-1.2687-.90625-2.2656-2.08438-2.2656Zm11.7812.7794c-1.5406 0-2.8093 1.3593-2.8093 2.9906 0 1.6313 1.2687 2.9906 2.8093 2.9906 1.5407 0 2.8094-1.3593 2.8094-2.9906 0-1.6313-1.2687-2.9906-2.8094-2.9906Zm0 1.45c.7976 0 1.4501.6978 1.4501 1.5406 0 .8609-.6525 1.5406-1.4501 1.5406-.7975 0-1.45-.6978-1.45-1.5406 0-.8609.6525-1.5406 1.45-1.5406Z" fill="#fff"/></svg>