<svg width="16" height="16" fill="none" xmlns="http://www.w3.org/2000/svg"><rect width="16" height="16" rx="4" fill="#EEE"/><path d="M2.472 10.49a2.039 2.039 0 0 1-.465-1.445v-2.09a2.067 2.067 0 0 1 .458-1.46c.308-.332.834-.497 1.577-.495.744.002 1.248.148 1.511.437.321.36.478.803.442 1.251v.49H4.62v-.532a2.35 2.35 0 0 0-.043-.418.444.444 0 0 0-.156-.264.552.552 0 0 0-.179-.084.613.613 0 0 0-.203-.02.568.568 0 0 0-.288.04.457.457 0 0 0-.21.17 1.302 1.302 0 0 0-.113.612v2.652c-.015.21.03.42.13.613.047.07.119.126.204.162.086.036.182.05.277.041a.523.523 0 0 0 .272-.04.417.417 0 0 0 .193-.166c.08-.196.115-.403.103-.61v-.557h1.375v.482c.04.454-.104.907-.409 1.284-.292.307-.797.457-1.514.457s-1.278-.167-1.587-.51ZM7.262 5h1.485L10 11H8.766l-.223-1.326h-1.04l-.25 1.317H6L7.262 5Zm1.144 3.92L8.01 6.509 7.619 8.92h.787ZM10.907 5.904H10V5h3v.904h-.896V11h-1.2l.003-5.096Z" fill="#111"/></svg>