<svg width="36" height="50" viewBox="0 0 36 50" fill="none" xmlns="http://www.w3.org/2000/svg"><path d="M28.2034 0h-.1954c-.3302.18708-.593.47392-.7509.81959a8.02783 8.02783 0 0 0-.6634 1.75773.8405.8405 0 0 1-.2627.47583.83738.83738 0 0 1-.4984.21489 3.77073 3.77073 0 0 0-1.57.66208 3.78136 3.78136 0 0 0-1.1197 1.28637 14.08671 14.08671 0 0 0-.9515 2.06186c-.7303 1.89691-1.2908 3.85565-1.98 5.76805-.324.8711-.3394.8711-1.3165.8711-1.1675 0-1.0852-.1804-1.1006 1.1083 0 .4072.1234.6134.5554.5928.1337 0 .3343-.0671.3857.1082.0515.1753-.1234.2526-.2263.3557-.6097.6204-1.3815 1.0563-2.2268 1.2577-.9772.2629-1.9749.4691-2.9263.7887-2.4429.8196-4.70057 1.9639-6.45943 3.902-1.02843 1.2038-1.85202 2.5692-2.43771 4.0413C2.57143 30.5258 1.656 35.2165.94629 39.9536.612 42.1753.37543 44.4072.19543 46.6546.10286 47.7577 0 48.8763 0 50h17.1411a1.1262 1.1262 0 0 0-.1182-.6598 2.57749 2.57749 0 0 0-.7778-1.0502 2.5694 2.5694 0 0 0-1.192-.5323c-.36-.0824-.4011-.1907-.18-.4742a5.34153 5.34153 0 0 0 .8178-1.5979c.8382-2.4794 1.1622-5.067 1.5685-7.6289.2295-1.9568.83-3.8516 1.7692-5.5825.7325-1.274 1.7096-2.39 2.8748-3.2835.4269-.3247.4423-.3247.5143.2268.0514.366.0617.7423.0874 1.1134a48.16552 48.16552 0 0 1-.0925 7.3093c-.1942 1.884-.22 3.7815-.0772 5.6701.2045 2.1926.595 4.3636 1.1675 6.4897h6.84c-.0893-.558-.3456-1.0757-.7351-1.4844-.3894-.4087-.8935-.6892-1.4455-.8043a4.62006 4.62006 0 0 0-1.9337.1031c-.3086.0722-.4372 0-.4629-.335a29.11255 29.11255 0 0 1 .5143-8.1547 91.80272 91.80272 0 0 0 1.5737-9.3711c.135-1.2717.5344-2.5008 1.1726-3.6082.612-1.0928 1.1468-2.2268 1.7486-3.3248.2389-.3992.3826-.8483.4201-1.3123a3.032 3.032 0 0 0-.2041-1.3629c-.1389-.366-.2726-.7372-.4423-1.0877-.5143-1.0051-1.0286-2-1.5017-3.0154-.252-.5155-.1955-.5774.3651-.5928.8383 0 .8383 0 .8537-.8454v-.3402c0-.3557-.1337-.5515-.5143-.5154h-.7817c-.3548 0-.4577-.1495-.3703-.5155.1735-.595.5148-1.127.9829-1.5321a3.20583 3.20583 0 0 1 1.6554-.7514 11.2914 11.2914 0 0 1 3.4046.2216.5129.5129 0 0 0 .3889-.0328.51476.51476 0 0 0 .2539-.2971c.2058-.5154.432-1.0309.6635-1.54636a.51671.51671 0 0 0 .0664-.30191.51564.51564 0 0 0-.1179-.28571c-1.6457-2.09279-3.4302-4.0464-5.8628-5.29897a.76721.76721 0 0 1-.2996-.23095.77001.77001 0 0 1-.153-.34637A10.1228 10.1228 0 0 0 28.9286.8866C28.7895.5199 28.5349.20865 28.2034 0Z" fill="#000"/></svg>