<svg width="26" height="31" viewBox="0 0 26 31" fill="none" xmlns="http://www.w3.org/2000/svg"><path d="M5.53799 0c-1.06295 0-1.06295 1.5831 0 1.5831h6.64351v1.60421C5.37855 3.62002 0 9.41417 0 16.4854c0 4.0105 1.74325 7.6305 4.4963 10.0685.47833.4221.54211 1.1715.10629 1.6358l-1.53065 1.5515c-.74407.686.3614 1.7519 1.03107 1.0026l1.99835-2.0369c.35078-.3377.87162-.4222 1.30744-.2111 1.71856.8439 3.6081 1.2882 5.5253 1.2992 1.9172.0109 3.8118-.4117 5.5401-1.2359.4251-.2111.9566-.1266 1.2968.2111l1.9345 1.9736c.6803.6332 1.6583-.3166 1.0417-1.0026l-1.4456-1.4776c-.4464-.4538-.3826-1.2031.1063-1.6359 1.4505-1.2692 2.6107-2.8318 3.4027-4.583.792-1.7511 1.1975-3.6503 1.1893-5.5699 0-7.07118-5.4105-12.87589-12.224-13.28749V1.5831h6.6435c1.0629 0 1.0629-1.5831 0-1.5831H5.53799Zm-4.103 16.4748c0-6.53293 5.17659-11.82049 11.56491-11.82049 6.3778 0 11.5544 5.28756 11.5544 11.82049 0 6.5435-5.1766 11.8416-11.5544 11.8416-6.37769 0-11.56491-5.2981-11.56491-11.8416ZM12.1921 8.37988c0-1.09762 1.6582-1.09762 1.6582 0v8.63322c0 .2239-.0896.4386-.2491.597-.1594.1583-.3757.2473-.6013.2473-.2124 0-.4163-.0831-.5675-.2312-.1512-.1482-.2375-.3495-.2403-.5604V8.37988ZM7.21746 10.9973c.30729 0 .60199-.1212.81927-.337.21729-.2157.33935-.5083.33935-.81342 0-.3051-.12206-.5977-.33935-.81344-.21728-.21574-.51198-.33694-.81927-.33694-.28677.02736-.55299.15983-.74671.37155-.19373.21172-.30106.48751-.30106.77356 0 .28609.10733.56179.30106.77359.19372.2117.45994.3441.74671.3715v.0106Zm11.55434 0c.3073 0 .602-.1212.8193-.337.2172-.2157.3393-.5083.3393-.81342 0-.3051-.1221-.5977-.3393-.81344-.2173-.21574-.512-.33694-.8193-.33694-.2868.02736-.553.15983-.7467.37155-.1938.21172-.3011.48751-.3011.77356 0 .28609.1073.56179.3011.77359.1937.2117.4599.3441.7467.3715v.0106ZM8.37608 23.5882c0 1.5303-2.31724 1.5303-2.31724 0s2.31724-1.5303 2.31724 0Zm4.62382 3.4406c.1608.0153.323-.0029.4763-.0534.1532-.0506.2941-.1324.4137-.2402.1195-.1079.215-.2393.2804-.3859.0653-.1467.0991-.3053.0991-.4656 0-.1604-.0338-.3189-.0991-.4656-.0654-.1466-.1609-.2781-.2804-.3859-.1196-.1078-.2605-.1896-.4137-.2402a1.165205 1.165205 0 0 0-.4763-.0534c-.2867.0273-.553.1598-.7467.3715-.1937.2118-.301.4875-.301.7736 0 .286.1073.5618.301.7735.1937.2118.46.3442.7467.3716ZM4.91085 16.6437c.01545.1596-.00288.3206-.05381.4728-.05093.1522-.13333.2921-.24193.4108-.1086.1187-.24098.2135-.38867.2784-.14768.0649-.3074.0984-.46889.0984-.1615 0-.32122-.0335-.4689-.0984-.14768-.0649-.28007-.1597-.38867-.2784-.1086-.1187-.191-.2586-.24193-.4108s-.06926-.3132-.05381-.4728c.02756-.2848.16098-.5491.37421-.7414.21324-.1924.491-.299.7791-.299.28809 0 .56585.1066.77909.299.21323.1923.34665.4566.37421.7414ZM22.237 17.794c.1608.0154.323-.0028.4762-.0534.1533-.0505.2942-.1324.4138-.2402.1195-.1078.215-.2393.2804-.3859.0653-.1466.0991-.3052.0991-.4656 0-.1603-.0338-.3189-.0991-.4655-.0654-.1467-.1609-.2781-.2804-.3859-.1196-.1079-.2605-.1897-.4138-.2402-.1532-.0506-.3154-.0688-.4762-.0535-.2868.0274-.553.1599-.7467.3716-.1937.2117-.3011.4875-.3011.7735 0 .2861.1074.5619.3011.7736.1937.2117.4599.3442.7467.3715Zm-2.3066 5.8047c0 1.5198-2.3172 1.5198-2.3172-.0105s2.3172-1.5303 2.3172 0v.0105Z" fill="#fff"/></svg>