<svg width="152" height="152" fill="none" xmlns="http://www.w3.org/2000/svg"><path fill="#EEE" d="M0 0h152v152H0z"/><path d="M36.302 95.837a18.558 18.558 0 0 1-3.254-11.806V66.969a18.845 18.845 0 0 1 3.208-11.92c2.154-2.714 5.834-4.064 11.04-4.049 5.207.015 8.733 1.206 10.577 3.572a15.058 15.058 0 0 1 3.091 10.214v4.003h-9.623v-4.345a22.28 22.28 0 0 0-.302-3.412 3.791 3.791 0 0 0-1.093-2.161 3.65 3.65 0 0 0-1.25-.684 3.7 3.7 0 0 0-1.423-.158c-.69-.1-1.394.01-2.018.315a3.362 3.362 0 0 0-1.468 1.392 12.202 12.202 0 0 0-.79 5.004v21.657c-.107 1.714.204 3.43.906 5.004a3.411 3.411 0 0 0 1.432 1.323 3.506 3.506 0 0 0 1.938.338 3.198 3.198 0 0 0 1.906-.326 3.103 3.103 0 0 0 1.349-1.358c.562-1.6.806-3.291.72-4.981v-4.55h9.623v3.935a16.229 16.229 0 0 1-2.859 10.487c-2.045 2.503-5.578 3.731-10.6 3.731-5.02 0-8.948-1.365-11.11-4.163ZM73.468 52h11.135L94 99h-9.256l-1.668-10.385h-7.8l-1.879 10.318H64L73.468 52Zm8.574 30.707-2.96-18.89-2.936 18.89h5.896ZM100.556 59.083H93V52h25v7.083h-7.463V99h-10.004l.023-39.917Z" fill="#111"/></svg>