<svg width="67" height="28" viewBox="0 0 67 28" fill="none" xmlns="http://www.w3.org/2000/svg"><path d="M61.5591 2.87843a7.60112 7.60112 0 0 1 2.25-2.3c.5-.35.8-.35 1.1.3.4.95.75 1.95.45 3a1.14416 1.14416 0 0 0-.03.54977c.0348.18297.1138.35468.23.50023.3.4.55.8.8 1.15.3403.43188.561.94565.64 1.48977a3.1361 3.1361 0 0 1-.19 1.61023 2.71563 2.71563 0 0 0-.1 1.54997c.0999.495.0999 1.005 0 1.5-.0404.3707-.1904.721-.4309 1.006-.2405.285-.5605.4918-.9191.594a2.6056 2.6056 0 0 0-1.6 1 .52507.52507 0 0 1-.1922.184.5249.5249 0 0 1-.2578.066c-.6.1-2.1-1.25-2.1-1.85v-.3c.05-1.8-.05-1.95-1.7-2.7a2.1957 2.1957 0 0 1-.9-.59997c-.3-.4-.7-.35-1.15-.2-.45.15-.7.45-.65.94997.1508 1.2105.201 2.4313.15 3.65a.94007.94007 0 0 0 .1.4c1.55 2.25 2.15 4.9 2.9 7.45.6 1.95 1.7 3 3.7 3.15.3201.0256.6377.0757.95.15.4109.066.7926.2538 1.0957.539.303.2853.5135.6549.6043 1.061.35 1.05.15 1.3-.9 1.3h-3.25a1.62006 1.62006 0 0 1-1.15-.4 5.85626 5.85626 0 0 0-1.7-1 3.62958 3.62958 0 0 1-1.7-1.3 14.30746 14.30746 0 0 0-2-2.25c-1.4-1.45-2.9-2.85-4.2-4.35a5.69007 5.69007 0 0 1-1.6-3.8c0-.45-.1-.65-.6-.45a.96462.96462 0 0 1-.5.15c-1.4 0-2.1.85-2.6 2.1-.45 1.05-1.05 2.05-1.6 3.1a5.1948 5.1948 0 0 0-.5 2.1c0 1.2.3 1.6 1.4 2 .7.25 1.35.5 1.7 1.2.4.8.3 1-.55 1.05h-3.4a.9399.9399 0 0 1-.95-.55l-.9-1.5a3.02467 3.02467 0 0 1-.4959-1.3084 3.02517 3.02517 0 0 1 .1459-1.3916 5.92957 5.92957 0 0 0 .05-2.65 4.21041 4.21041 0 0 1 .0318-1.8455 4.2112 4.2112 0 0 1 .8182-1.6545c.3-.35.3-.5-.2-.6a25.03084 25.03084 0 0 1-5.9-2.05.0497.0497 0 0 1-.0353-.0146.05003.05003 0 0 1-.0147-.0354c-1.6-.6-1.9-.5-2.35 1.15-.4 1.4-.8 2.8-1.1 4.25-.35 1.6.05 3.1.55 4.6.2.6.8.55 1.25.7 1 .3 1.85.7 2.25 1.75.35.8.3.9-.55.9-.85 0-1.7-.05-2.6 0a3.3199 3.3199 0 0 1-2.1-.7c-2.4-1.6-3.1-4.05-3.3-6.7-.1-1.65-1-2.95-2.05-4.2-.2-.25-.4-.35-.7-.15a22.15608 22.15608 0 0 1-3.35 1.5 13.3554 13.3554 0 0 0-6.1 4.4 5.31513 5.31513 0 0 0-1.1 2.55c-.15.9.1 1.3 1 1.55s1.35.75 1.45 1.7c.05.4-.1.6-.5.6h-4.05a.8241.8241 0 0 1-.374-.1203.82424.82424 0 0 1-.276-.2797 4.27967 4.27967 0 0 1-.95-2.75 25.3067 25.3067 0 0 1 .45-5.15 3.1519 3.1519 0 0 1 .5527-1.4106 3.1513 3.1513 0 0 1 1.1473-.9894c2.95-1.4 4.5-4.05 5.9-6.79997.3-.55.05-.65-.45-.6a8.23558 8.23558 0 0 0-3.85 1.59997 35.31664 35.31664 0 0 0-4.15 3.55c-1.37516 1.3969-3.19864 2.2643-5.14999 2.45-3.65.2-5.35-1.85-5.2-5.15a4.84497 4.84497 0 0 1 1.20001-3.04997 2.12499 2.12499 0 0 1 2.25-.75c.75.2.94999.6.64999 1.35-.15.3-.35.55-.5.85a3.75053 3.75053 0 0 0-.5.99997c-.55 1.5.2 2.55 1.75 2.7 1.65.15 3.00001-.55 4.25001-1.55a22.46515 22.46515 0 0 0 3.99998-4.14997 10.39541 10.39541 0 0 1 3.1804-2.77094 10.39514 10.39514 0 0 1 4.0196-1.27906c1.15-.15 2.15-.65 3.25-.95a20.7552 20.7552 0 0 1 6.35-.9 6.49996 6.49996 0 0 0 2.9-.55c2.45-1 5-1 7.55-.5 2 .4 4 .9 5.95 1.4a8.29001 8.29001 0 0 0 3.5-.1 33.89437 33.89437 0 0 1 6.7-1 9.07979 9.07979 0 0 1 4.3.85c1 .45 1 .45.75 1.4Z" fill="#000"/></svg>