<svg width="101" height="18" viewBox="0 0 101 18" fill="none" xmlns="http://www.w3.org/2000/svg"><g clip-path="url(#a)" fill="#111"><path d="M1.264 16.538A6.865 6.865 0 0 1 0 12.231V5.846a6.95 6.95 0 0 1 1.185-4.384C2.055.462 3.398 0 5.374 0s3.24.462 4.03 1.308a5.422 5.422 0 0 1 1.186 3.769v1.538H6.718V4.846a3.693 3.693 0 0 0-.238-1.538 1.12 1.12 0 0 0-.456-.473 1.163 1.163 0 0 0-.65-.143c-.553 0-.948.154-1.106.539a4.846 4.846 0 0 0-.237 1.692v8.23a3.111 3.111 0 0 0 .316 1.616c.158.385.553.539 1.106.539s.87-.154 1.027-.539c.18-.52.26-1.067.238-1.615v-1.846h3.872v1.538a5.775 5.775 0 0 1-1.185 3.846c-.79.923-2.134 1.385-4.031 1.385-1.897-.077-3.32-.539-4.11-1.539ZM15.253.23h4.504l3.32 17.54H19.44l-.632-3.693h-2.608l-.632 3.692h-3.715L15.253.231Zm3.24 11.54-.948-6.847-.949 6.846h1.897ZM25.843 3.154h-2.687V.23h9.404v2.846h-2.687v14.692h-4.03V3.154ZM39.752.23h6.955v1.847h-4.505v5.77h3.635v1.768h-3.635v6.462h4.505v1.77h-7.034V.23h.079ZM48.761.23H50.5l5.137 11.616V.231h2.055v17.538h-1.58l-5.217-12v12h-2.134V.231ZM60.063.23h6.954v1.847h-4.504v5.77h3.635v1.768h-3.635v6.462h4.504v1.77h-6.954V.23ZM69.072.23h3.635a6.451 6.451 0 0 1 4.03 1.078c.87.692 1.265 1.923 1.265 3.538 0 2.23-.71 3.616-2.212 4.077l2.528 8.77h-2.45l-2.37-8.231h-1.976v8.23h-2.529V.231h.079Zm3.477 7.54a3.524 3.524 0 0 0 2.292-.616c.474-.385.711-1.154.711-2.308a4.848 4.848 0 0 0-.237-1.692 1.975 1.975 0 0 0-.869-.923 3.69 3.69 0 0 0-1.739-.308h-1.106v5.77h.948v.076ZM81.163 16.462A7.613 7.613 0 0 1 80.058 12V6.154a12.26 12.26 0 0 1 .395-3.308 3.916 3.916 0 0 1 1.502-2c.882-.508 1.9-.75 2.924-.692 1.66 0 2.845.384 3.556 1.23a5.771 5.771 0 0 1 1.107 3.847v.615H87.17v-.538a11.03 11.03 0 0 0-.158-1.923 1.533 1.533 0 0 0-.633-1A2.493 2.493 0 0 0 84.878 2a2.417 2.417 0 0 0-1.58.462c-.187.152-.338.34-.447.551a1.701 1.701 0 0 0-.186.68 14.01 14.01 0 0 0-.158 2.076v6.539a6.818 6.818 0 0 0 .474 2.923c.316.615.949.846 1.897.846.374.045.754-.018 1.092-.182.337-.165.617-.422.805-.741a6.908 6.908 0 0 0 .553-3.077v-1.23h-2.292v-1.77h4.584v8.692h-1.58l-.238-2a3.143 3.143 0 0 1-1.226 1.658 3.288 3.288 0 0 1-2.014.573 4.046 4.046 0 0 1-1.899-.352 3.932 3.932 0 0 1-1.5-1.186ZM94.678 11.615 90.805.308h2.371l2.766 8.461L98.63.308H101l-3.873 11.307v6.154h-2.37v-6.154h-.08Z"/></g><defs><clipPath id="a"><path fill="#fff" d="M0 0h101v18H0z"/></clipPath></defs></svg>