<svg width="174" height="52" viewBox="0 0 174 52" fill="none" xmlns="http://www.w3.org/2000/svg"><g clip-path="url(#a)"><path d="M51.5819 20.854c-1.485-3.589-3.8766-6.7228-6.9363-9.0891-3.0598-2.36621-6.681-3.88228-10.5026-4.39709-3.8216-.5148-7.7102-.01036-11.2784 1.46305-3.5681 1.47344-6.6911 3.86434-9.0578 6.93454-2.3666 3.0701-3.8943 6.7123-4.43071 10.5636-.53641 3.8512-.06284 7.777 1.37351 11.3861 1.4364 3.6091 3.7854 6.7755 6.8129 9.1836s6.6278 3.9739 10.4421 4.5412c-.4996-1.8161-1.0079-3.8233-1.4558-5.9521a27.75624 27.75624 0 0 0 4.1004 2.2157s.1034 1.8769.2412 3.971a21.76442 21.76442 0 0 0 4.5914-.4084 1.8737 1.8737 0 0 1 0-.6604c.2498-1.6249.939-4.5531 1.0768-6.4387.9934-.9373 1.8362-2.0249 2.4981-3.2236l-.0517.3823c-.4738 3.7016-1.4644 7.6551-2.0674 8.75a4.8448 4.8448 0 0 1-.715.9992c3.1182-.7378 6.04-2.1509 8.5629-4.1413 2.5228-1.9903 4.5863-4.5103 6.0474-7.3852 1.4612-2.8749 2.285-6.036 2.4143-9.2641.1293-3.228-.4389-6.4458-1.6653-9.4303Zm-1.2663 3.2932c-.379.3736-1.1629.6256-1.2921-.504-.1293-1.1296-.1637-1.9203-.1637-1.9203s-1.6626-2.9804-2.2828-3.0151c-.6202-.0348-5.0221 3.0151-6.1851 4.3446-1.0078 1.1209-1.206 1.0427-1.206 3.0151 0 1.4859.1896 7.0991.0862 11.3915l-7.0207 1.8856a54.72373 54.72373 0 0 1-6.7191 1.4945l-.8614-5.0658h-.1206l-2.2139-11.4436s-3.2821-1.2513-4.4881-1.5901c-.5662-.2499-1.1915-.3312-1.8021-.2342s-1.1809.3682-1.6436.7816c-.472.4169-.8495.9315-1.1066 1.5088-.2572.5772-.388 1.2036-.3836 1.8365.1821.4039.3207.8262.4134 1.2599.0431.4171-1.0337.3737-1.7228.3737-.6892 0-.7925-1.2513-.2498-2.7197.4234-1.1292.9481-2.217 1.5678-3.2498.466-.9226 1.0671-1.7691 1.7831-2.5112 0 0 .1206-.2954 1.0768-.2085.9562.0869 6.2712.3736 6.2712.3736l.0431-1.9724a121.94927 121.94927 0 0 1 17.4353-1.1644v1.5902c2.2089-1.0168 4.5875-1.6063 7.012-1.7379a.77806.77806 0 0 1 .3741.0851c.1157.0591.2151.1464.2892.2538.2929.3736 2.0761 2.6068 2.2828 2.9283a24.34465 24.34465 0 0 1 1.5764 2.6067 5.44072 5.44072 0 0 1-.7494 1.5988v.0087Z" fill="#FDC305"/><path d="M48.6363 18.8294c.4048.5214.758.9819.8614 1.1209a24.3559 24.3559 0 0 1 1.5764 2.6068 5.44385 5.44385 0 0 1-.7408 1.5467c-.379.3736-1.1629.6256-1.2922-.504-.1292-1.1296-.1809-1.8769-.1809-1.8769s-1.6625-2.9804-2.2827-3.0151c-.6203-.0348-5.0222 3.0151-6.1851 4.3446-1.0079 1.1209-1.206 1.0427-1.206 3.0151 0 1.3034.1464 5.7783.112 9.7579 1.5592.1738 3.8506.6083 4.5397 1.6336 0 0-.2498-6.2388 6.7278-2.9717 0 0 .2412-8.5067 9.8719-6.3257-3.2739-3.8772-7.2873-7.0509-11.8015-9.3322ZM39.5654 16.8135a79.26619 79.26619 0 0 0-1.206-14.36315s-.1292-1.1296-.7494-.20854c-.5118 1.1011-.8601 2.27221-1.0338 3.47566a60.5356 60.5356 0 0 0-11.0435.29543c-.7063-2.38952-1.9123-3.47566-2.4895-3.18892-.5772.28674-.6461 2.85005-.6461 2.85005l-.2842 12.30387a121.95624 121.95624 0 0 1 17.4525-1.1644Z" fill="#F06351"/><path d="M39.0651 40.9434c.112-.9298.1723-2.1636.2067-3.5278l-7.0203 1.8855a54.72378 54.72378 0 0 1-6.7188 1.538l.9562 4.3446c0 .0956 0 .1911.0603.2867a27.759 27.759 0 0 0 4.1002 2.2158c2.0834-1.0047 4.0677-2.2063 5.9263-3.5887v.0522c.9889-.9327 1.8287-2.0143 2.4894-3.2063Z" fill="#E55645"/><path d="M27.5657 14.0938c-.0431-.0869.8614.5909 1.2146.7994.3531.2086.5254.365.5254.5127 0 .1477-.224.2954-.5341.2954-.3101 0-.7924-.1042-.8613-.2259-.069-.1216.5168 0 .8097 0h.2498c-.5304-.3914-1.0031-.8565-1.4041-1.3816ZM34.0264 14.1894s-.8614 1.1122-.9389 1.1644c-.0776.0521-.1465.2954.1636.2519a6.9111 6.9111 0 0 0 1.0509-.2433c.0948-.0521.0603-.1737-.1034-.1564-.1636.0174-.5857.0435-.8613.0956l.7321-1.1035s.0259-.1043-.043-.0087ZM31.3215 19.4985c.3993-.1775.7293-.4829.9389-.8689.2412-.5735 0-.7907-.379-.8689-.5214-.096-1.0596.0095-1.5074.2954-.336.3215-.2929.6343 0 .8689.2909.2302.6092.4228.9475.5735Z" fill="#000"/><path d="M31.0113 20.5933a1.77926 1.77926 0 0 1-.3963.5214c-.2453.1991-.5469.3147-.8614.3302-.4742.0469-.9484-.0897-1.3265-.3824a1.72365 1.72365 0 0 1-.4565-.391.86243.86243 0 0 0-.3101-.2172s.646 3.5712 2.2137 4.1447c1.5677.5735 1.8606-.6603 1.9037-.9905.0525-.9889-.1938-1.9706-.7064-2.8153 0-.2607-.0172-.0869-.0602-.1999Z" fill="#F06351"/><path d="M29.5469 21.5839a2.99815 2.99815 0 0 1-1.1382-.4123c-.3479-.2135-.6493-.496-.8861-.8303a.13138.13138 0 0 1-.0329-.0869c0-.032.0118-.0629.0329-.0868a.12164.12164 0 0 1 .0395-.0271.1207.1207 0 0 1 .0467-.0095c.016 0 .0319.0033.0467.0095a.12018.12018 0 0 1 .0394.0271c.2132.3016.4836.5576.7956.753.312.1954.6594.3263 1.0219.3852.2869-.0217.5645-.1118.8101-.2629.2456-.151.4521-.3587.6026-.606l.1206-.1651.0862.1912s.3273.6604.8613.6951c.5341.0348.9131-.3649 1.4041-1.1209a.12482.12482 0 0 1 .079-.0534.12325.12325 0 0 1 .0933.0187.12546.12546 0 0 1 .0529.0797.12576.12576 0 0 1-.0185.094c-.5742.8516-1.1169 1.26-1.628 1.2252a1.32846 1.32846 0 0 1-.5536-.2068 1.34101 1.34101 0 0 1-.4111-.4275c-.1686.2374-.3875.4339-.6408.5752a1.93469 1.93469 0 0 1-.8236.2416Z" fill="#000"/><path d="M31.2353 33.2795c1.7839 0 3.2302-1.4588 3.2302-3.2584 0-1.7996-1.4463-3.2585-3.2302-3.2585-1.784 0-3.2302 1.4589-3.2302 3.2585s1.4462 3.2584 3.2302 3.2584Z" fill="#FDC305"/><path d="m35.5163 27.3709-2.6962 1.1383.9906-4.892-6.4604 8.4806 2.6962-1.1383-.9906 4.9007 6.4604-8.4893Zm-6.3657 3.3279 3.5834-4.7008-.6977 3.4757 1.7228-.7126-3.6093 4.7096.6978-3.4757-1.697.7038ZM27.9447 29.4215c.5329 0 .9648-.4357.9648-.9732 0-.5374-.4319-.9732-.9648-.9732-.5328 0-.9647.4358-.9647.9732 0 .5375.4319.9732.9647.9732ZM33.5612 32.9493c.3759 0 .6805-.3073.6805-.6864s-.3046-.6865-.6805-.6865c-.3758 0-.6805.3074-.6805.6865s.3047.6864.6805.6864ZM34.3882 31.0638c.1665 0 .3015-.1362.3015-.3041 0-.168-.135-.3042-.3015-.3042-.1665 0-.3015.1362-.3015.3042 0 .1679.135.3041.3015.3041Z" fill="#111"/><path d="M39.2702 18.6169a49.74332 49.74332 0 0 0-4.3847 4.5271c-1.3599 1.5895-2.8944 3.0179-4.5742 4.2577-.1895-.4605-1.4041-1.3208-1.4041-1.3208s-2.7049-1.8681-4.4795-3.3366a27.57937 27.57937 0 0 1-2.7048-2.6068L20 20.042c2.487 3.6643 6.1304 6.3716 10.3371 7.6812.7409-.1217 2.8255-1.6249 4.3847-2.8501 1.8447-1.5824 3.5721-3.2987 5.1686-5.1353.4291-.5144.7619-1.1033.982-1.7378-.982.3302-1.6022.6169-1.6022.6169ZM22.3368 24.3297s-3.282-1.2513-4.488-1.5901c-.5663-.2499-1.1916-.3312-1.8022-.2342-.6105.097-1.1808.3682-1.6435.7816-.4721.4169-.8495.9315-1.1067 1.5088-.2571.5772-.388 1.2036-.3836 1.8365.1821.4039.3207.8262.4135 1.2599.0431.4171-1.0337.3737-1.7229.3737-.6891 0-.7925-1.2513-.2498-2.7197.4234-1.1292.9482-2.217 1.5678-3.2498C8.22664 24.7641 0 30.4642 0 30.4642a39.13614 39.13614 0 0 1 7.0551.2086c4.5225.4605 4.3071 4.0578 4.3071 4.0578a33.03298 33.03298 0 0 1 4.8499-.9645c1.8262-.1216 1.9554 1.8421 1.9554 1.8421l.4566 3.354a15.80414 15.80414 0 0 1 2.2828-2.0506c1.0634-.8587 2.4174-1.264 3.773-1.1296l-2.3431-11.4523Z" fill="#F06351"/><path d="M73.7899 36.4945c-.8874-1.3264-1.3117-2.9131-1.2059-4.5097V25.468c-.112-1.6084.3059-3.2091 1.1887-4.5532.7982-1.0369 2.1621-1.5524 4.0916-1.5466 1.9295.0058 3.2359.4605 3.9193 1.3642.8332 1.1198 1.2398 2.5044 1.1456 3.9014v1.5293h-3.5661v-1.6596a8.76844 8.76844 0 0 0-.112-1.3034c-.0431-.312-.1851-.6016-.4049-.8255a1.34117 1.34117 0 0 0-.4631-.2614 1.33357 1.33357 0 0 0-.5274-.0601 1.24806 1.24806 0 0 0-.7481.12c-.2312.1167-.4212.3023-.544.5317a4.79062 4.79062 0 0 0-.2929 1.9116v8.2721c-.0393.655.0758 1.3101.3359 1.9116.1243.217.3087.3926.5306.5053.2219.1127.4716.1576.7185.129a1.1537 1.1537 0 0 0 .7062-.1244c.2166-.1154.3914-.2969.4997-.5186.2084-.6113.299-1.2572.267-1.9029v-1.7378h3.5662v1.5032c.1049 1.4176-.2685 2.8293-1.0595 4.0057-.7581.9558-2.0674 1.425-3.928 1.425-1.8606 0-3.3163-.5213-4.1174-1.5901ZM87.788 19.6201h4.083l3.4456 18.2473h-3.3939l-.6116-4.0318h-2.8598l-.6891 4.0057h-3.4455l3.4713-18.2212Zm3.1441 11.9216-1.0853-7.3337-1.0768 7.3337h2.1621ZM97.9615 22.3659h-2.7908v-2.7458h9.2343v2.7458h-2.757v15.4754h-3.6951l.0086-15.4754Z" fill="#111"/><path d="M111.65 19.6201h7.003v1.8943h-4.479v6.0216h3.635v1.7986h-3.635v6.682h4.522v1.8247h-7.046V19.6201ZM120.729 19.6201h1.723l5.168 12.104v-12.104h2.102v18.2473h-1.611l-5.168-12.4429v12.4168h-2.136l-.078-18.2212ZM132.505 19.6201h6.994v1.8943h-4.479v6.0216h3.67v1.7986h-3.635v6.682h4.496v1.8247h-7.046V19.6201ZM141.576 19.6201h3.635c1.432-.1162 2.859.2874 4.023 1.1383.861.756 1.283 1.9898 1.283 3.7016 0 2.3171-.744 3.7335-2.231 4.249l2.584 9.1323h-2.446l-2.369-8.5501H144.1v8.5501h-2.524V19.6201Zm3.445 7.8203c.83.081 1.66-.1546 2.326-.6604.271-.3231.473-.6988.595-1.1037.121-.405.159-.8307.111-1.251.018-.5896-.067-1.1776-.249-1.7379-.074-.2066-.189-.3961-.337-.5573-.148-.1611-.326-.2908-.525-.3811a4.0676 4.0676 0 0 0-1.766-.3041h-1.111v6.0302l.956-.0347ZM153.911 36.4945c-.823-1.4019-1.204-3.0231-1.094-4.6487v-6.0824c-.029-1.1738.116-2.3454.431-3.4757.249-.8497.778-1.5885 1.499-2.0941.871-.5294 1.879-.7836 2.894-.7299.657-.063 1.32.0195 1.941.2416.622.2221 1.189.5786 1.66 1.0444.826 1.1679 1.217 2.5929 1.102 4.0231v.6778h-2.368v-.5648c.016-.6755-.036-1.351-.155-2.0159-.079-.4262-.312-.8073-.655-1.0688-.447-.2662-.964-.3903-1.482-.3562-.562-.0486-1.122.126-1.559.4866-.357.3419-.591.7946-.663 1.286-.109.7157-.158 1.4395-.147 2.1636v6.7688c-.068 1.0286.106 2.0589.509 3.0065.233.2914.53.525.867.6831.337.158.705.2362 1.077.2287.371-.0076.736-.1007 1.067-.2723.33-.1716.617-.4171.839-.7177.415-1.0022.595-2.0877.526-3.1716v-1.286h-2.292V28.822h4.566v9.0193h-1.56l-.249-2.0941c-.198.6957-.623 1.3036-1.206 1.7248-.583.4213-1.291.631-2.007.5952-.674.06-1.352-.0528-1.971-.3277-.619-.275-1.159-.7032-1.57-1.245ZM167.711 31.4113l-3.902-11.7912h2.343l2.765 8.7935 2.722-8.7935h2.369l-3.876 11.7912v6.43h-2.412l-.009-6.43Z" fill="#444"/></g><defs><clipPath id="a"><path fill="#fff" d="M0 0h174v51.6832H0z"/></clipPath></defs></svg>