<svg width="34" height="38" viewBox="0 0 34 38" fill="none" xmlns="http://www.w3.org/2000/svg"><g clip-path="url(#a)"><path d="M6.07 20.72v-2.26a143.2649 143.2649 0 0 1 20.17-1.33c0 .6 0 1.21-.06 1.82a25.5176 25.5176 0 0 1 6-1.82A16.6697 16.6697 0 0 0 14.9414 6.5568 16.67 16.67 0 0 0 .19 20.39l5.88.33ZM27.24 24.23c-1.16 1.28-1.39 1.2-1.39 3.45v9.18A16.6404 16.6404 0 0 0 33.32 23a17.302 17.302 0 0 0-.32-3.1 33.109 33.109 0 0 0-5.76 4.33ZM6.36 25.72s-3.79-1.44-5.19-1.83A8.5412 8.5412 0 0 0 0 23.61a16.6497 16.6497 0 0 0 8.68 14L6.36 25.72Z" fill="#FDC305"/><path d="M26.29 17.12A89.7986 89.7986 0 0 0 24.89.65S24.75-.64 24 .41a14.2203 14.2203 0 0 0-1.2 3.94 70.3397 70.3397 0 0 0-12.77.34C9.24 2 7.85.75 7.18 1c-.67.25-.72 3.31-.72 3.31l-.33 14.1a143.2112 143.2112 0 0 1 20.16-1.29Z" fill="#F06351"/><path d="M12.41 14c0-.09 1 .68 1.41.92.41.24.61.42.61.59 0 .17-.27.34-.63.34s-.91-.12-1-.27h1.23A8.339 8.339 0 0 1 12.41 14ZM19.89 14.11l-1.09 1.33c0 .06-.17.35.18.3a7.3514 7.3514 0 0 0 1.22-.29c.11 0 .07-.19-.11-.17-.18.02-.69.05-1 .11l.84-1.26s.07-.13-.04-.02ZM16.75 20.2a2.2999 2.2999 0 0 0 1.09-1c.28-.65 0-.91-.44-1a2.4304 2.4304 0 0 0-1.74.34c-.39.36-.34.72-.05 1a5.3393 5.3393 0 0 0 1.14.66Z" fill="#000"/><path d="M16.35 21.45a1.9202 1.9202 0 0 1-.46.6 1.73 1.73 0 0 1-1 .38 2.15 2.15 0 0 1-1.47-.43 2.2998 2.2998 0 0 1-.53-.44 1.069 1.069 0 0 0-.36-.26s.75 4.1 2.57 4.75c1.82.65 2.14-.75 2.2-1.13a5.6102 5.6102 0 0 0-.82-3.23c-.02-.31-.03-.11-.13-.24Z" fill="#F06351"/><path d="M14.71 22.59a3.4406 3.4406 0 0 1-2.33-1.42.1393.1393 0 0 1-.042-.1.14.14 0 0 1 .042-.1.1393.1393 0 0 1 .1-.042.14.14 0 0 1 .1.042 3.2603 3.2603 0 0 0 2.11 1.3 2.0907 2.0907 0 0 0 1.63-1l.14-.19.1.21s.37.76 1 .8c.63.04 1.05-.41 1.61-1.28a.1393.1393 0 0 1 .1-.042.14.14 0 0 1 .1.042.1501.1501 0 0 1 .05.2c-.64 1-1.27 1.44-1.88 1.4a1.5505 1.5505 0 0 1-1.12-.76 2.2604 2.2604 0 0 1-1.71.94Z" fill="#000"/><path d="M26.24 18.92a58.6338 58.6338 0 0 0-5.07 5.19A31.6329 31.6329 0 0 1 15.88 29c-.22-.53-1.62-1.51-1.62-1.51s-3.13-2.14-5.18-3.82a34.139 34.139 0 0 1-3.13-3l-2-.11a22.57 22.57 0 0 0 12 8.8c.86-.14 3.27-1.86 5.07-3.26a58.1298 58.1298 0 0 0 5.94-5.89 6.1496 6.1496 0 0 0 1.14-2c-1.1.39-1.86.71-1.86.71Z" fill="#F06351"/></g><defs><clipPath id="a"><path fill="#fff" d="M0 0h33.32v37.61H0z"/></clipPath></defs></svg>