<svg width="101" height="18" viewBox="0 0 101 18" fill="none" xmlns="http://www.w3.org/2000/svg"><g clip-path="url(#a)" fill="#111"><path d="M1.26449 16.5385c-.89494-1.2623-1.3392-2.7758-1.26448-4.3077V5.84615c-.10837-1.54841.30806-3.08869 1.18545-4.38461C2.05478.46154 3.39829 0 5.37403 0c1.97575 0 3.24022.46154 4.03052 1.30769.85805 1.07172 1.28005 2.41367 1.18545 3.76923v1.53847H6.71754V4.84615c.03127-.52326-.04946-1.04715-.23709-1.53846-.10029-.19831-.25925-.36289-.45642-.47256-.19717-.10966-.42354-.15941-.65-.14282-.55321 0-.94835.15384-1.10641.53846-.17879.54656-.259 1.11911-.23709 1.69231v8.23072c-.04174.5562.06727 1.1132.31612 1.6154.15805.3846.5532.5385 1.10641.5385.55321 0 .86933-.1539 1.02739-.5385.17968-.5198.26004-1.0673.23709-1.6154v-1.8461H10.59v1.5385c.0804 1.3776-.3392 2.739-1.18545 3.8461-.7903.9231-2.1338 1.3846-4.03052 1.3846-1.89671-.0769-3.31925-.5384-4.10954-1.5384ZM15.2527.23077h4.5047l3.3193 17.53843h-3.6354l-.6322-3.6923h-2.608l-.6322 3.6923h-3.7144L15.2527.23077ZM18.493 11.7692l-.9484-6.84612-.9483 6.84612h1.8967ZM25.8427 3.15385h-2.687V.23077h9.4045v2.84615h-2.687V17.7692h-4.0305V3.15385ZM39.752.23077h6.9546v1.84615h-4.5047v5.76923h3.6353v1.76924h-3.6353v6.46151h4.5047v1.7693h-7.0337V.23077h.0791ZM48.7613.23077H50.5l5.1369 11.61543V.23077h2.0548V17.7692h-1.5806l-5.216-11.99997V17.7692h-2.1338V.23077ZM60.0626.23077h6.9546v1.84615h-4.5047v5.76923h3.6354v1.76924h-3.6354v6.46151h4.5047v1.7693h-6.9546V.23077ZM69.072.23077h3.6354c1.4301-.09615 2.8513.28358 4.0305 1.07692.8693.69231 1.2645 1.92308 1.2645 3.53847 0 2.23076-.7113 3.61538-2.2129 4.07692l2.529 8.76922h-2.4499l-2.3709-8.23076h-1.9758v8.23076H68.993V.23077h.079Zm3.4773 7.53846c.8147.06535 1.6268-.15271 2.2919-.61538.4742-.38462.7112-1.15385.7112-2.30769.0219-.5732-.0583-1.14576-.237-1.69231-.1779-.39219-.4834-.71655-.8694-.92308-.5443-.24143-1.1418-.34717-1.7386-.30769H71.601v5.76923h.9483v.07692ZM81.1635 16.4615c-.8215-1.3449-1.2071-2.8998-1.1064-4.4615V6.15384c-.0195-1.11473.1134-2.22704.3951-3.30769.2645-.80752.7915-1.50947 1.5016-2 .8824-.5084 1.9004-.74942 2.9241-.6923 1.6596 0 2.8451.38461 3.5564 1.23076.8181 1.1173 1.2095 2.47776 1.1064 3.84616v.61538h-2.3709v-.53846a11.02963 11.02963 0 0 0-.1581-1.92308c-.0666-.40158-.2939-.76113-.6322-1-.4442-.28379-.9714-.41882-1.5016-.38461-.5666-.03534-1.1275.12843-1.5806.46154-.1859.15247-.3378.34027-.4465.5519-.1088.21163-.1719.44264-.1857.67887a14.01024 14.01024 0 0 0-.1581 2.07692v6.53847c-.0582.9961.1035 1.9929.4742 2.9231.3161.6154.9484.8461 1.8967.8461.3745.0454.7543-.018 1.0918-.1822.3375-.1643.6176-.422.8049-.7409.4176-.9727.6066-2.0239.5532-3.0769v-1.2307H85.036V9.07692h4.5837v8.69228h-1.5806l-.2371-2c-.2072.6703-.6386 1.2539-1.2257 1.6581-.5871.4042-1.2962.6058-2.0145.5727-.653.0374-1.3053-.0836-1.8985-.3521-.5931-.2685-1.1084-.6762-1.4998-1.1864ZM94.6776 11.6154 90.8052.30769h2.3709l2.766 8.46154 2.687-8.46154H101L97.1275 11.6154v6.1538h-2.3709v-6.1538h-.079Z"/></g><defs><clipPath id="a"><path fill="#fff" d="M0 0h101v18H0z"/></clipPath></defs></svg>