<svg width="26" height="28" viewBox="0 0 26 28" fill="none" xmlns="http://www.w3.org/2000/svg"><path d="M25.3438.767C25.2434.317 24.8647 0 24.4325 0h-.0056C19.4891.033 7.48156.916 2.63375 8.38c-2.51813 3.878-2.73469 8.913-.64406 14.965.01593.047.04875.079.07031.122-.74719 1.973-1.03688 3.286-1.04438 3.323-.10874.54.21469 1.072.72094 1.188a.88032.88032 0 0 0 .19688.022c.43218 0 .82125-.321.91593-.79.01969-.102 2.40844-10.373 10.85343-16.378.4313-.306.5475-.927.2597-1.387-.2878-.46-.8691-.585-1.3003-.277-4.78876 3.405-7.73814 8.008-9.47251 11.656-1.24125-4.578-.91594-8.377.98625-11.305C7.91937 3.755 16.7984 2.365 22.1581 2.071 21.005 3.872 19.745 7.174 19.745 13c0 3.12-.8297 5.522-2.4647 7.14-2.6212 2.591-6.8794 2.834-9.99374 2.584-.5175-.045-.96656.371-1.00594.922-.03937.55.34782 1.03.86344 1.072.62344.051 1.28907.082 1.98094.082 3.1706 0 6.8691-.663 9.4294-3.194 2.0344-2.011 3.0656-4.906 3.0656-8.605 0-9.099 3.2156-11.096 3.2316-11.105.39-.209.5943-.677.4922-1.129Z" fill="#fff"/></svg>