<svg width="34" height="38" viewBox="0 0 34 38" fill="none" xmlns="http://www.w3.org/2000/svg"><g clip-path="url(#a)"><path d="M6.07 20.72v-2.26a143.26488 143.26488 0 0 1 20.17-1.33c0 .6 0 1.21-.06 1.82a25.51762 25.51762 0 0 1 6-1.82c-1.3175-3.408-3.7182-6.2888-6.8329-8.19913A16.66994 16.66994 0 0 0 5.22852 10.9811C2.56325 13.4804.79297 16.7863.19 20.39l5.88.33ZM27.24 24.23c-1.16 1.28-1.39 1.2-1.39 3.45v9.18a16.64035 16.64035 0 0 0 5.478-5.9906A16.63978 16.63978 0 0 0 33.32 23a17.30202 17.30202 0 0 0-.32-3.1 33.109 33.109 0 0 0-5.76 4.33ZM6.36 25.72s-3.79-1.44-5.19-1.83A8.54118 8.54118 0 0 0 0 23.61a16.64973 16.64973 0 0 0 2.48739 8.1486A16.65028 16.65028 0 0 0 8.68 37.61L6.36 25.72Z" fill="#FDC305"/><path d="M26.29 17.12A89.79864 89.79864 0 0 0 24.89.65S24.75-.64 24 .41a14.22035 14.22035 0 0 0-1.2 3.94 70.33965 70.33965 0 0 0-12.77.34C9.24 2 7.85.75 7.18 1c-.67.25-.72 3.31-.72 3.31l-.33 14.1c6.6813-.904 13.418-1.3351 20.16-1.29Z" fill="#F06351"/><path d="M12.41 14c0-.09 1 .68 1.41.92.41.24.61.42.61.59 0 .17-.27.34-.63.34s-.91-.12-1-.27h1.23A8.33905 8.33905 0 0 1 12.41 14ZM19.89 14.11l-1.09 1.33c0 .06-.17.35.18.3a7.3514 7.3514 0 0 0 1.22-.29c.11 0 .07-.19-.11-.17-.18.02-.69.05-1 .11l.84-1.26s.07-.13-.04-.02ZM16.75 20.2a2.29988 2.29988 0 0 0 1.09-1c.28-.65 0-.91-.44-1a2.43035 2.43035 0 0 0-1.74.34c-.39.36-.34.72-.05 1 .3513.2662.7342.4879 1.14.66Z" fill="#000"/><path d="M16.35 21.45a1.9202 1.9202 0 0 1-.46.6 1.72996 1.72996 0 0 1-1 .38 2.14994 2.14994 0 0 1-1.47-.43 2.29975 2.29975 0 0 1-.53-.44 1.06897 1.06897 0 0 0-.36-.26s.75 4.1 2.57 4.75c1.82.65 2.14-.75 2.2-1.13a5.61023 5.61023 0 0 0-.82-3.23c-.02-.31-.03-.11-.13-.24Z" fill="#F06351"/><path d="M14.71 22.59a3.44007 3.44007 0 0 1-2.33-1.42.13991.13991 0 0 1-.042-.1.13991.13991 0 0 1 .042-.1.13991.13991 0 0 1 .1-.042.13991.13991 0 0 1 .1.042 3.26034 3.26034 0 0 0 2.11 1.3 2.0907 2.0907 0 0 0 .9361-.3026c.2835-.174.5214-.413.6939-.6974l.14-.19.1.21s.37.76 1 .8c.63.04 1.05-.41 1.61-1.28a.13991.13991 0 0 1 .1-.042.13991.13991 0 0 1 .1.042.15014.15014 0 0 1 .0648.09.15013.15013 0 0 1-.0148.11c-.64 1-1.27 1.44-1.88 1.4a1.54875 1.54875 0 0 1-.6473-.2513 1.55049 1.55049 0 0 1-.4727-.5087 2.26039 2.26039 0 0 1-.7483.6641 2.26146 2.26146 0 0 1-.9617.2759Z" fill="#000"/><path d="M26.24 18.92a58.63378 58.63378 0 0 0-5.07 5.19A31.63285 31.63285 0 0 1 15.88 29c-.22-.53-1.62-1.51-1.62-1.51s-3.13-2.14-5.18-3.82a34.13901 34.13901 0 0 1-3.13-3l-2-.11c2.89018 4.2055 7.1202 7.3076 12 8.8.86-.14 3.27-1.86 5.07-3.26a58.12983 58.12983 0 0 0 5.94-5.89 6.14962 6.14962 0 0 0 1.14-2c-1.1.39-1.86.71-1.86.71Z" fill="#F06351"/></g><defs><clipPath id="a"><path fill="#fff" d="M0 0h33.32v37.61H0z"/></clipPath></defs></svg>